<svg width="61" height="43" viewBox="0 0 61 43" fill="none" xmlns="http://www.w3.org/2000/svg">
<path d="M59.7406 6.72564C59.0287 4.0795 56.948 1.98461 54.3194 1.26795C49.6105 0 30.5 0 30.5 0C30.5 0 11.4443 0 6.68043 1.26795C4.05207 1.98461 1.97127 4.0795 1.25943 6.72564C0 11.5218 0 21.5 0 21.5C0 21.5 0 31.4782 1.25943 36.2744C1.97127 38.9205 4.05207 41.0154 6.68043 41.7322C11.4443 43 30.5 43 30.5 43C30.5 43 49.5558 43 54.3194 41.7322C56.948 41.0154 59.0287 38.9205 59.7406 36.2744C61 31.4782 61 21.5 61 21.5C61 21.5 61 11.5218 59.7406 6.72564ZM24.4219 30.7064V12.2936L40.247 21.5L24.4219 30.7064Z" fill="#B0B0B0"/>
</svg>
