<svg width="82" height="36" viewBox="0 0 82 36" fill="none" xmlns="http://www.w3.org/2000/svg">
<g style="mix-blend-mode:luminosity">
<path d="M0 0H16.0504V35.9529H0V0Z" fill="#727272"/>
<path d="M0 13.3777H16.0504V35.9528H0V13.3777Z" fill="#C8C8C8"/>
<path d="M36.8844 18.8178V13.4018H37.6068V18.8178H36.8844Z" fill="black"/>
<path d="M39.3049 18.8178H38.6241V14.1318C38.6241 13.6048 38.8208 13.3413 39.2141 13.3413C39.4789 13.3413 39.6982 13.5216 39.8722 13.8821L41.8238 17.9365V13.4018H42.5121V18.1067C42.5121 18.6312 42.3217 18.8934 41.941 18.8934C41.6637 18.8934 41.438 18.7131 41.264 18.3526L39.3049 14.2717V18.8178Z" fill="black"/>
<path d="M43.2799 18.8178V18.0992H45.1293C45.7294 18.0992 46.0294 17.871 46.0294 17.4146C46.0294 17.2053 45.9362 17.02 45.7496 16.8586C45.6437 16.7679 45.4583 16.6544 45.1936 16.5183L44.2859 16.0531C43.6303 15.7177 43.3026 15.2714 43.3026 14.7142C43.3026 14.2679 43.474 13.9301 43.8169 13.7006C44.1119 13.5014 44.4927 13.4018 44.9591 13.4018H46.5249V14.1166H44.7208C44.5292 14.1166 44.3716 14.1633 44.2481 14.2566C44.1119 14.3574 44.0439 14.5011 44.0439 14.6877C44.0439 14.839 44.0968 14.9739 44.2027 15.0924C44.3086 15.2109 44.5658 15.3735 44.9742 15.5803L45.7647 15.9812C46.4404 16.3241 46.7783 16.7893 46.7783 17.3768C46.7783 17.8735 46.598 18.2467 46.2375 18.4963C45.9248 18.7106 45.5088 18.8178 44.9894 18.8178H43.2799Z" fill="black"/>
<path d="M48.5861 18.8178V14.0712H47.2019V13.4018H50.6927V14.0712H49.3085V18.8178H48.5861Z" fill="black"/>
<path d="M51.347 18.8178V13.4018H52.0694V18.8178H51.347Z" fill="black"/>
<path d="M54.1004 18.8178V14.0712H52.7162V13.4018H56.207V14.0712H54.8228V18.8178H54.1004Z" fill="black"/>
<path d="M57.5043 13.4018V16.7717C57.5043 17.7424 57.8913 18.2278 58.6654 18.2278C59.4419 18.2278 59.8302 17.7424 59.8302 16.7717V13.4018H60.5488V16.8057C60.5488 17.4184 60.3912 17.9151 60.0761 18.2958C59.7357 18.7068 59.2654 18.9123 58.6654 18.9123C58.0653 18.9123 57.5963 18.7068 57.2584 18.2958C56.9433 17.9151 56.7857 17.4184 56.7857 16.8057V13.4018H57.5043Z" fill="black"/>
<path d="M62.5042 18.8178V14.0712H61.1199V13.4018H64.6108V14.0712H63.2265V18.8178H62.5042Z" fill="black"/>
<path d="M68.3702 14.0448C68.3097 14.0397 68.2302 14.0372 68.1319 14.0372C66.7931 14.0372 66.0102 14.5932 65.7832 15.7051H68.3702V16.3481H65.7454C65.9295 17.5608 66.7149 18.1672 68.1016 18.1672C68.2202 18.1672 68.3097 18.1647 68.3702 18.1597V18.8178H68.1622C67.3604 18.8178 66.7514 18.6917 66.3354 18.4395C65.4479 17.9 65.0041 17.1221 65.0041 16.106C65.0041 15.4656 65.197 14.9046 65.5828 14.423C65.9711 13.9389 66.4779 13.63 67.1032 13.4964C67.4057 13.4333 67.8281 13.4018 68.3702 13.4018V14.0448Z" fill="black"/>
<path d="M36.7736 24.5992C36.7736 23.8327 37.0396 23.1758 37.5716 22.6287C38.1061 22.079 38.7566 21.8042 39.5231 21.8042C40.2846 21.8042 40.9313 22.079 41.4633 22.6287C41.9979 23.1784 42.2651 23.8352 42.2651 24.5992C42.2651 25.3657 42.0004 26.0237 41.4709 26.5734C40.9338 27.1281 40.2846 27.4055 39.5231 27.4055C38.7541 27.4055 38.1036 27.1306 37.5716 26.581C37.0396 26.0313 36.7736 25.3707 36.7736 24.5992ZM37.5073 24.5916C37.5073 25.1665 37.6976 25.6619 38.0784 26.078C38.4717 26.5066 38.9533 26.7209 39.5231 26.7209C40.0879 26.7209 40.567 26.5053 40.9603 26.0742C41.3385 25.6581 41.5276 25.1639 41.5276 24.5916C41.5276 24.0243 41.3373 23.5314 40.9565 23.1128C40.5632 22.6842 40.0854 22.4698 39.5231 22.4698C38.9533 22.4698 38.4717 22.6829 38.0784 23.109C37.6976 23.5225 37.5073 24.0167 37.5073 24.5916Z" fill="black"/>
<path d="M42.9573 27.3109V23.7784C42.9573 22.5228 43.5952 21.895 44.871 21.895H45.6425V22.5644H44.7462C44.0276 22.5644 43.6683 22.9325 43.6683 23.6688V24.2739H45.6425V24.9395H43.6683V27.3109H42.9573Z" fill="black"/>
<path d="M48.9 27.338V23.9001C48.9 23.295 49.0362 22.8109 49.3085 22.4478C49.6136 22.0368 50.0586 21.8313 50.6436 21.8313C51.0974 21.8313 51.487 21.9649 51.8122 22.2322C52.1627 22.5171 52.338 22.8815 52.338 23.3252C52.338 23.7866 52.1337 24.156 51.7253 24.4334C52.3052 24.683 52.5951 25.1217 52.5951 25.7495C52.5951 26.2513 52.4123 26.6472 52.0467 26.9371C51.7114 27.2044 51.2865 27.338 50.7722 27.338H49.8834V26.6572H50.7797C51.0899 26.6572 51.3382 26.5829 51.5248 26.4341C51.7316 26.2702 51.8349 26.037 51.8349 25.7344C51.8349 25.4394 51.7303 25.2112 51.521 25.0499C51.3294 24.9061 51.0823 24.8343 50.7797 24.8343H49.8834V24.1838C50.37 24.1838 50.6171 24.1838 50.6247 24.1838C50.9222 24.1611 51.1529 24.0867 51.3168 23.9606C51.5135 23.8119 51.6118 23.6127 51.6118 23.3631C51.6118 23.0983 51.5198 22.884 51.3357 22.7201C51.1592 22.5663 50.9361 22.4894 50.6663 22.4894C50.3158 22.4894 50.0485 22.6066 49.8645 22.8411C49.6955 23.0554 49.6111 23.3429 49.6111 23.7034V27.338H48.9Z" fill="black"/>
<path d="M53.9907 21.9221V25.2919C53.9907 26.2626 54.3778 26.748 55.1518 26.748C55.9284 26.748 56.3167 26.2626 56.3167 25.2919V21.9221H57.0353V25.326C57.0353 25.9387 56.8777 26.4354 56.5625 26.8161C56.2221 27.2271 55.7519 27.4326 55.1518 27.4326C54.5517 27.4326 54.0828 27.2271 53.7449 26.8161C53.4297 26.4354 53.2721 25.9387 53.2721 25.326V21.9221H53.9907Z" fill="black"/>
<path d="M57.7539 27.338V26.6194H59.6033C60.2034 26.6194 60.5035 26.3912 60.5035 25.9349C60.5035 25.7256 60.4102 25.5403 60.2236 25.3789C60.1177 25.2881 59.9324 25.1747 59.6676 25.0385L58.7599 24.5733C58.1044 24.238 57.7766 23.7917 57.7766 23.2345C57.7766 22.7882 57.948 22.4503 58.2909 22.2209C58.5859 22.0217 58.9667 21.9221 59.4331 21.9221H60.9989V22.6369H59.1949C59.0032 22.6369 58.8456 22.6835 58.7221 22.7768C58.5859 22.8777 58.5179 23.0214 58.5179 23.208C58.5179 23.3593 58.5708 23.4942 58.6767 23.6127C58.7826 23.7312 59.0398 23.8938 59.4483 24.1006L60.2387 24.5015C60.9144 24.8444 61.2523 25.3096 61.2523 25.897C61.2523 26.3938 61.072 26.7669 60.7115 27.0165C60.3988 27.2309 59.9828 27.338 59.4634 27.338H57.7539Z" fill="black"/>
<path d="M62.0692 27.338V21.9221H62.7916V27.338H62.0692Z" fill="black"/>
<path d="M64.4898 27.338H63.809V22.652C63.809 22.1251 64.0057 21.8616 64.399 21.8616C64.6638 21.8616 64.8831 22.0419 65.0571 22.4024L67.0086 26.4568V21.9221H67.697V26.627C67.697 27.1514 67.5066 27.4137 67.1259 27.4137C66.8485 27.4137 66.6229 27.2334 66.4489 26.8728L64.4898 22.792V27.338Z" fill="black"/>
<path d="M71.8157 22.565C71.7551 22.56 71.6757 22.5575 71.5774 22.5575C70.2385 22.5575 69.4556 23.1134 69.2287 24.2254H71.8157V24.8683H69.1909C69.375 26.0811 70.1604 26.6875 71.5471 26.6875C71.6656 26.6875 71.7551 26.685 71.8157 26.6799V27.338H71.6076C70.8058 27.338 70.1969 27.2119 69.7809 26.9598C68.8934 26.4202 68.4496 25.6424 68.4496 24.6263C68.4496 23.9858 68.6425 23.4248 69.0283 22.9432C69.4166 22.4591 69.9234 22.1503 70.5487 22.0166C70.8512 21.9536 71.2736 21.9221 71.8157 21.9221V22.565Z" fill="black"/>
<path d="M72.3981 27.338V26.6194H74.2475C74.8476 26.6194 75.1477 26.3912 75.1477 25.9349C75.1477 25.7256 75.0544 25.5403 74.8678 25.3789C74.7619 25.2881 74.5766 25.1747 74.3118 25.0385L73.4041 24.5733C72.7486 24.238 72.4208 23.7917 72.4208 23.2345C72.4208 22.7882 72.5922 22.4503 72.9352 22.2209C73.2302 22.0217 73.6109 21.9221 74.0773 21.9221H75.6431V22.6369H73.8391C73.6474 22.6369 73.4899 22.6835 73.3663 22.7768C73.2302 22.8777 73.1621 23.0214 73.1621 23.208C73.1621 23.3593 73.215 23.4942 73.3209 23.6127C73.4268 23.7312 73.684 23.8938 74.0925 24.1006L74.8829 24.5015C75.5587 24.8444 75.8965 25.3096 75.8965 25.897C75.8965 26.3938 75.7162 26.7669 75.3557 27.0165C75.043 27.2309 74.627 27.338 74.1076 27.338H72.3981Z" fill="black"/>
<path d="M76.4676 27.338V26.6194H78.317C78.9171 26.6194 79.2172 26.3912 79.2172 25.9349C79.2172 25.7256 79.1239 25.5403 78.9373 25.3789C78.8314 25.2881 78.6461 25.1747 78.3813 25.0385L77.4736 24.5733C76.8181 24.238 76.4903 23.7917 76.4903 23.2345C76.4903 22.7882 76.6618 22.4503 77.0047 22.2209C77.2997 22.0217 77.6804 21.9221 78.1469 21.9221H79.7126V22.6369H77.9086C77.717 22.6369 77.5594 22.6835 77.4358 22.7768C77.2997 22.8777 77.2316 23.0214 77.2316 23.208C77.2316 23.3593 77.2845 23.4942 77.3904 23.6127C77.4963 23.7312 77.7535 23.8938 78.162 24.1006L78.9524 24.5015C79.6282 24.8444 79.966 25.3096 79.966 25.897C79.966 26.3938 79.7858 26.7669 79.4252 27.0165C79.1125 27.2309 78.6965 27.338 78.1771 27.338H76.4676Z" fill="black"/>
<path d="M36.8844 35.8583V30.4423H37.6068V35.8583H36.8844Z" fill="black"/>
<path d="M39.3049 35.8583H38.6241V31.1723C38.6241 30.6453 38.8208 30.3818 39.2141 30.3818C39.4789 30.3818 39.6982 30.5621 39.8722 30.9227L41.8238 34.9771V30.4423H42.5121V35.1473C42.5121 35.6717 42.3217 35.9339 41.941 35.9339C41.6637 35.9339 41.438 35.7536 41.264 35.3931L39.3049 31.3122V35.8583Z" fill="black"/>
<path d="M44.5166 35.8583V31.1118H43.1324V30.4423H46.6232V31.1118H45.239V35.8583H44.5166Z" fill="black"/>
<path d="M50.3826 31.0853C50.3221 31.0803 50.2427 31.0777 50.1443 31.0777C48.8055 31.0777 48.0226 31.6337 47.7957 32.7456H50.3826V33.3886H47.7579C47.9419 34.6014 48.7273 35.2078 50.1141 35.2078C50.2326 35.2078 50.3221 35.2052 50.3826 35.2002V35.8583H50.1746C49.3728 35.8583 48.7639 35.7322 48.3479 35.4801C47.4603 34.9405 47.0166 34.1627 47.0166 33.1465C47.0166 32.5061 47.2095 31.9451 47.5952 31.4635C47.9835 30.9794 48.4903 30.6705 49.1156 30.5369C49.4182 30.4739 49.8405 30.4423 50.3826 30.4423V31.0853Z" fill="black"/>
<path d="M51.1352 30.4423H51.8538V34.0845C51.8538 34.8233 52.2131 35.1926 52.9317 35.1926H53.9151V35.8583H53.0565C51.7757 35.8583 51.1352 35.2279 51.1352 33.9672V30.4423Z" fill="black"/>
<path d="M54.3424 30.4423H55.061V34.0845C55.061 34.8233 55.4203 35.1926 56.1389 35.1926H57.1223V35.8583H56.2637C54.9829 35.8583 54.3424 35.2279 54.3424 33.9672V30.4423Z" fill="black"/>
<path d="M57.6253 35.8583V30.4423H58.3477V35.8583H57.6253Z" fill="black"/>
<path d="M62.0049 32.7683H64.6032V32.9536C64.6032 33.5462 64.4973 34.0517 64.2855 34.4703C64.0485 34.9367 63.717 35.3011 63.2908 35.5633C62.8647 35.823 62.3907 35.9528 61.8688 35.9528C61.1073 35.9528 60.4568 35.6742 59.9172 35.117C59.3852 34.5673 59.1192 33.9105 59.1192 33.1465C59.1192 32.3573 59.3915 31.6942 59.9361 31.1572C60.4833 30.6201 61.1527 30.3516 61.9444 30.3516C62.7387 30.3516 63.456 30.6768 64.0964 31.3274L63.6161 31.8152C63.0891 31.2782 62.5243 31.0097 61.9217 31.0097C61.3317 31.0097 60.8388 31.2164 60.4429 31.6299C60.0496 32.0434 59.8529 32.5464 59.8529 33.139C59.8529 33.7138 60.0433 34.2093 60.424 34.6253C60.8174 35.054 61.2989 35.2683 61.8688 35.2683C62.4033 35.2683 62.8509 35.0968 63.2114 34.7539C63.5568 34.4236 63.7649 33.9887 63.8355 33.4491H62.0049V32.7683Z" fill="black"/>
<path d="M68.4836 31.0853C68.4231 31.0803 68.3437 31.0777 68.2454 31.0777C66.9065 31.0777 66.1236 31.6337 65.8967 32.7456H68.4836V33.3886H65.8589C66.0429 34.6014 66.8283 35.2078 68.2151 35.2078C68.3336 35.2078 68.4231 35.2052 68.4836 35.2002V35.8583H68.2756C67.4738 35.8583 66.8649 35.7322 66.4489 35.4801C65.5614 34.9405 65.1176 34.1627 65.1176 33.1465C65.1176 32.5061 65.3105 31.9451 65.6962 31.4635C66.0845 30.9794 66.5913 30.6705 67.2166 30.5369C67.5192 30.4739 67.9415 30.4423 68.4836 30.4423V31.0853Z" fill="black"/>
<path d="M69.97 35.8583H69.2892V31.1723C69.2892 30.6453 69.4859 30.3818 69.8792 30.3818C70.144 30.3818 70.3633 30.5621 70.5373 30.9227L72.4889 34.9771V30.4423H73.1772V35.1473C73.1772 35.6717 72.9868 35.9339 72.6061 35.9339C72.3287 35.9339 72.1031 35.7536 71.9291 35.3931L69.97 31.3122V35.8583Z" fill="black"/>
<path d="M77.2959 31.0853C77.2303 31.0803 77.1433 31.0777 77.0349 31.0777C76.3415 31.0777 75.783 31.2454 75.3595 31.5808C74.8955 31.9489 74.6636 32.4708 74.6636 33.1465C74.6636 33.8147 74.8968 34.3354 75.3632 34.7085C75.7868 35.0489 76.3314 35.2191 76.9971 35.2191C77.0954 35.2191 77.195 35.2153 77.2959 35.2078V35.8583H77.0879C76.6844 35.8583 76.3315 35.8268 76.0289 35.7637C75.4036 35.6326 74.8968 35.325 74.5085 34.8409C74.1227 34.3543 73.9298 33.7895 73.9298 33.1465C73.9298 32.5061 74.1227 31.9451 74.5085 31.4635C74.8968 30.9794 75.4036 30.6705 76.0289 30.5369C76.3315 30.4739 76.7538 30.4423 77.2959 30.4423V31.0853Z" fill="black"/>
<path d="M81.1536 31.0853C81.0931 31.0803 81.0137 31.0777 80.9153 31.0777C79.5765 31.0777 78.7936 31.6337 78.5667 32.7456H81.1536V33.3886H78.5288C78.7129 34.6014 79.4983 35.2078 80.8851 35.2078C81.0036 35.2078 81.0931 35.2052 81.1536 35.2002V35.8583H80.9456C80.1438 35.8583 79.5349 35.7322 79.1188 35.4801C78.2313 34.9405 77.7875 34.1627 77.7875 33.1465C77.7875 32.5061 77.9804 31.9451 78.3662 31.4635C78.7545 30.9794 79.2613 30.6705 79.8866 30.5369C80.1892 30.4739 80.6115 30.4423 81.1536 30.4423V31.0853Z" fill="black"/>
<path d="M26.1085 36V12.5193H29.2404V36H26.1085Z" fill="#1F1A1A"/>
<path d="M8.13208 36V21.3407C8.13208 18.7604 8.71265 16.6961 9.87378 15.148C11.1747 13.3955 13.0723 12.5193 15.5666 12.5193C17.5018 12.5193 19.1628 13.0891 20.5497 14.2287C22.0442 15.4436 22.7914 16.9972 22.7914 18.8894C22.7914 20.8569 21.9205 22.4319 20.1788 23.6146C22.6516 24.6789 23.888 26.5496 23.888 29.2267C23.888 31.3662 23.1085 33.0541 21.5496 34.2905C20.1197 35.4302 18.3081 36 16.1149 36H12.3251V33.0971H16.1471C17.4695 33.0971 18.5285 32.78 19.3241 32.1457C20.2057 31.4468 20.6465 30.4523 20.6465 29.1622C20.6465 27.9043 20.2003 26.9313 19.308 26.2432C18.4909 25.6304 17.4373 25.324 16.1471 25.324H12.3251V22.5502C14.4 22.5502 15.4537 22.5502 15.4859 22.5502C16.7546 22.4534 17.7383 22.1363 18.4371 21.5987C19.2757 20.9644 19.695 20.115 19.695 19.0507C19.695 17.9218 19.3026 17.0079 18.5178 16.3091C17.7652 15.6533 16.8137 15.3254 15.6633 15.3254C14.1689 15.3254 13.0293 15.8253 12.2444 16.8252C11.5241 17.739 11.1639 18.9646 11.1639 20.5021V36H8.13208Z" fill="#1F1A1A"/>
</g>
</svg>
