<svg width="53" height="57" viewBox="0 0 53 57" fill="none" xmlns="http://www.w3.org/2000/svg">
<g style="mix-blend-mode:luminosity" clip-path="url(#clip0_6056_132)">
<path d="M53.0001 0V56.8888H29.4445V0H53.0001Z" fill="url(#paint0_linear_6056_132)"/>
<path d="M38.2779 16.8297V57.126H14.722V14.4594H35.3332C36.9593 14.4594 38.2776 15.5205 38.2776 16.8297H38.2779Z" fill="black" fill-opacity="0.2"/>
<path d="M38.2779 17.7778V58.074H14.722V15.4073H35.3332C36.9593 15.4073 38.2776 16.4687 38.2776 17.7778H38.2779Z" fill="black" fill-opacity="0.18"/>
<path d="M38.2779 16.5927V56.8888H14.722V14.2222H35.3332C36.9593 14.2222 38.2776 15.2835 38.2776 16.5927H38.2779Z" fill="url(#paint1_linear_6056_132)"/>
<path d="M0 28.4445V56.8888H23.5556V30.815C23.5556 29.5058 22.2372 28.4446 20.6112 28.4446L0 28.4445Z" fill="url(#paint2_linear_6056_132)"/>
</g>
<defs>
<linearGradient id="paint0_linear_6056_132" x1="39.4775" y1="-1.94456e-07" x2="57.5056" y2="47.4696" gradientUnits="userSpaceOnUse">
<stop stop-color="#ADADAD"/>
<stop offset="1" stop-color="#888888"/>
</linearGradient>
<linearGradient id="paint1_linear_6056_132" x1="24.1731" y1="14.2222" x2="39.3728" y2="50.8409" gradientUnits="userSpaceOnUse">
<stop stop-color="#D2D2D2"/>
<stop offset="1" stop-color="#ADADAD"/>
</linearGradient>
<linearGradient id="paint2_linear_6056_132" x1="6.54233" y1="28.4445" x2="15.5939" y2="55.0913" gradientUnits="userSpaceOnUse">
<stop stop-color="#E1E1E1"/>
<stop offset="1" stop-color="#D4D4D4"/>
</linearGradient>
<clipPath id="clip0_6056_132">
<rect width="53" height="57" fill="white"/>
</clipPath>
</defs>
</svg>
