<svg width="553" height="252" viewBox="0 0 553 252" fill="none" xmlns="http://www.w3.org/2000/svg">
<rect width="553" height="252" fill="#E8E8E8"/>
<path d="M57.4297 35.8125V61.4062H52.6133V35.8125H57.4297ZM65.375 35.8125V39.627H44.7559V35.8125H65.375ZM72.8021 42.3867V61.4062H68.1439V42.3867H72.8021ZM67.8275 37.4121C67.8275 36.7207 68.0619 36.1465 68.5306 35.6895C69.0111 35.2324 69.6556 35.0039 70.4642 35.0039C71.2728 35.0039 71.9115 35.2324 72.3802 35.6895C72.8607 36.1465 73.1009 36.7207 73.1009 37.4121C73.1009 38.0918 72.8607 38.6602 72.3802 39.1172C71.9115 39.5742 71.2728 39.8027 70.4642 39.8027C69.6556 39.8027 69.0111 39.5742 68.5306 39.1172C68.0619 38.6602 67.8275 38.0918 67.8275 37.4121ZM85.8718 42.3867V45.7266H74.9734V42.3867H85.8718ZM77.8913 37.7109H82.5495V55.9219C82.5495 56.4844 82.6257 56.918 82.778 57.2227C82.9304 57.5273 83.1589 57.7324 83.4636 57.8379C83.7683 57.9434 84.1316 57.9961 84.5534 57.9961C84.8581 57.9961 85.1394 57.9785 85.3972 57.9434C85.655 57.9082 85.8718 57.873 86.0476 57.8379L86.0652 61.3184C85.6784 61.4473 85.239 61.5527 84.7468 61.6348C84.2663 61.7168 83.7214 61.7578 83.112 61.7578C82.0691 61.7578 81.155 61.582 80.3698 61.2305C79.5847 60.8672 78.9753 60.2871 78.5417 59.4902C78.1081 58.6816 77.8913 57.6152 77.8913 56.291V37.7109ZM93.5274 34.4062V61.4062H88.8692V34.4062H93.5274ZM106.14 61.7578C104.699 61.7578 103.404 61.5234 102.255 61.0547C101.107 60.5859 100.128 59.9355 99.3198 59.1035C98.5229 58.2598 97.9077 57.2812 97.4741 56.168C97.0522 55.043 96.8413 53.8359 96.8413 52.5469V51.8438C96.8413 50.3789 97.0522 49.0488 97.4741 47.8535C97.8959 46.6465 98.4936 45.6094 99.267 44.7422C100.04 43.875 100.966 43.207 102.044 42.7383C103.123 42.2695 104.312 42.0352 105.613 42.0352C106.96 42.0352 108.15 42.2637 109.181 42.7207C110.212 43.166 111.074 43.7988 111.765 44.6191C112.456 45.4395 112.978 46.4238 113.33 47.5723C113.681 48.709 113.857 49.9688 113.857 51.3516V53.3027H98.9506V50.1035H109.287V49.752C109.263 49.0137 109.123 48.3398 108.865 47.7305C108.607 47.1094 108.208 46.6172 107.669 46.2539C107.13 45.8789 106.433 45.6914 105.578 45.6914C104.886 45.6914 104.283 45.8438 103.767 46.1484C103.263 46.4414 102.841 46.8633 102.501 47.4141C102.173 47.9531 101.927 48.5977 101.763 49.3477C101.599 50.0977 101.517 50.9297 101.517 51.8438V52.5469C101.517 53.3438 101.623 54.082 101.833 54.7617C102.056 55.4414 102.378 56.0332 102.8 56.5371C103.234 57.0293 103.749 57.416 104.347 57.6973C104.956 57.9668 105.648 58.1016 106.421 58.1016C107.394 58.1016 108.273 57.9141 109.058 57.5391C109.855 57.1523 110.546 56.584 111.132 55.834L113.47 58.2598C113.072 58.8457 112.533 59.4082 111.853 59.9473C111.185 60.4863 110.376 60.9258 109.427 61.2656C108.478 61.5938 107.382 61.7578 106.14 61.7578Z" fill="#6A6A6A"/>
<path d="M62.3984 169V203.219H56.1875V176.242L47.9609 178.961V173.945L61.6953 169H62.3984ZM107.47 183.227V188.969C107.47 191.594 107.204 193.836 106.673 195.695C106.142 197.555 105.376 199.078 104.376 200.266C103.376 201.438 102.181 202.305 100.79 202.867C99.3994 203.414 97.8525 203.688 96.1494 203.688C94.79 203.688 93.5244 203.516 92.3525 203.172C91.1806 202.812 90.1259 202.266 89.1884 201.531C88.2666 200.781 87.4697 199.828 86.7978 198.672C86.1416 197.516 85.6338 196.133 85.2744 194.523C84.9306 192.914 84.7588 191.062 84.7588 188.969V183.227C84.7588 180.602 85.0244 178.367 85.5556 176.523C86.1025 174.68 86.8759 173.172 87.8759 172C88.8759 170.828 90.0713 169.977 91.4619 169.445C92.8525 168.898 94.3994 168.625 96.1025 168.625C97.4775 168.625 98.7431 168.797 99.8994 169.141C101.071 169.484 102.118 170.023 103.04 170.758C103.978 171.477 104.774 172.414 105.431 173.57C106.087 174.711 106.587 176.086 106.931 177.695C107.29 179.289 107.47 181.133 107.47 183.227ZM101.282 189.812V182.359C101.282 181.047 101.204 179.906 101.048 178.938C100.907 177.953 100.696 177.117 100.415 176.43C100.134 175.742 99.7822 175.188 99.3603 174.766C98.9384 174.328 98.4541 174.008 97.9072 173.805C97.3603 173.602 96.7588 173.5 96.1025 173.5C95.29 173.5 94.5634 173.664 93.9228 173.992C93.2822 174.305 92.7431 174.805 92.3056 175.492C91.8681 176.18 91.5322 177.094 91.2978 178.234C91.0791 179.359 90.9697 180.734 90.9697 182.359V189.812C90.9697 191.125 91.04 192.273 91.1806 193.258C91.3369 194.242 91.5556 195.086 91.8369 195.789C92.1338 196.492 92.4853 197.07 92.8916 197.523C93.3134 197.961 93.7978 198.289 94.3447 198.508C94.8916 198.711 95.4931 198.812 96.1494 198.812C96.9775 198.812 97.7041 198.648 98.3291 198.32C98.9697 197.992 99.5088 197.477 99.9463 196.773C100.384 196.055 100.712 195.125 100.931 193.984C101.165 192.828 101.282 191.438 101.282 189.812ZM134.412 183.227V188.969C134.412 191.594 134.146 193.836 133.615 195.695C133.083 197.555 132.318 199.078 131.318 200.266C130.318 201.438 129.122 202.305 127.732 202.867C126.341 203.414 124.794 203.688 123.091 203.688C121.732 203.688 120.466 203.516 119.294 203.172C118.122 202.812 117.068 202.266 116.13 201.531C115.208 200.781 114.412 199.828 113.74 198.672C113.083 197.516 112.576 196.133 112.216 194.523C111.872 192.914 111.701 191.062 111.701 188.969V183.227C111.701 180.602 111.966 178.367 112.497 176.523C113.044 174.68 113.818 173.172 114.818 172C115.818 170.828 117.013 169.977 118.404 169.445C119.794 168.898 121.341 168.625 123.044 168.625C124.419 168.625 125.685 168.797 126.841 169.141C128.013 169.484 129.06 170.023 129.982 170.758C130.919 171.477 131.716 172.414 132.372 173.57C133.029 174.711 133.529 176.086 133.872 177.695C134.232 179.289 134.412 181.133 134.412 183.227ZM128.224 189.812V182.359C128.224 181.047 128.146 179.906 127.99 178.938C127.849 177.953 127.638 177.117 127.357 176.43C127.076 175.742 126.724 175.188 126.302 174.766C125.88 174.328 125.396 174.008 124.849 173.805C124.302 173.602 123.701 173.5 123.044 173.5C122.232 173.5 121.505 173.664 120.865 173.992C120.224 174.305 119.685 174.805 119.247 175.492C118.81 176.18 118.474 177.094 118.24 178.234C118.021 179.359 117.912 180.734 117.912 182.359V189.812C117.912 191.125 117.982 192.273 118.122 193.258C118.279 194.242 118.497 195.086 118.779 195.789C119.076 196.492 119.427 197.07 119.833 197.523C120.255 197.961 120.74 198.289 121.287 198.508C121.833 198.711 122.435 198.812 123.091 198.812C123.919 198.812 124.646 198.648 125.271 198.32C125.912 197.992 126.451 197.477 126.888 196.773C127.326 196.055 127.654 195.125 127.872 193.984C128.107 192.828 128.224 191.438 128.224 189.812ZM161.353 183.227V188.969C161.353 191.594 161.088 193.836 160.557 195.695C160.025 197.555 159.26 199.078 158.26 200.266C157.26 201.438 156.064 202.305 154.674 202.867C153.283 203.414 151.736 203.688 150.033 203.688C148.674 203.688 147.408 203.516 146.236 203.172C145.064 202.812 144.01 202.266 143.072 201.531C142.15 200.781 141.353 199.828 140.682 198.672C140.025 197.516 139.518 196.133 139.158 194.523C138.814 192.914 138.643 191.062 138.643 188.969V183.227C138.643 180.602 138.908 178.367 139.439 176.523C139.986 174.68 140.76 173.172 141.76 172C142.76 170.828 143.955 169.977 145.346 169.445C146.736 168.898 148.283 168.625 149.986 168.625C151.361 168.625 152.627 168.797 153.783 169.141C154.955 169.484 156.002 170.023 156.924 170.758C157.861 171.477 158.658 172.414 159.314 173.57C159.971 174.711 160.471 176.086 160.814 177.695C161.174 179.289 161.353 181.133 161.353 183.227ZM155.166 189.812V182.359C155.166 181.047 155.088 179.906 154.932 178.938C154.791 177.953 154.58 177.117 154.299 176.43C154.018 175.742 153.666 175.188 153.244 174.766C152.822 174.328 152.338 174.008 151.791 173.805C151.244 173.602 150.643 173.5 149.986 173.5C149.174 173.5 148.447 173.664 147.807 173.992C147.166 174.305 146.627 174.805 146.189 175.492C145.752 176.18 145.416 177.094 145.182 178.234C144.963 179.359 144.853 180.734 144.853 182.359V189.812C144.853 191.125 144.924 192.273 145.064 193.258C145.221 194.242 145.439 195.086 145.721 195.789C146.018 196.492 146.369 197.07 146.775 197.523C147.197 197.961 147.682 198.289 148.228 198.508C148.775 198.711 149.377 198.812 150.033 198.812C150.861 198.812 151.588 198.648 152.213 198.32C152.853 197.992 153.393 197.477 153.83 196.773C154.268 196.055 154.596 195.125 154.814 193.984C155.049 192.828 155.166 191.438 155.166 189.812Z" fill="#6A6A6A"/>
<path d="M47.1445 98.5625H49.7012L56.2227 114.791L62.7305 98.5625H65.3008L57.207 118.469H55.2109L47.1445 98.5625ZM46.3105 98.5625H48.5664L48.9355 110.703V118.469H46.3105V98.5625ZM63.8652 98.5625H66.1211V118.469H63.4961V110.703L63.8652 98.5625ZM78.8157 115.939V108.324C78.8157 107.741 78.6972 107.235 78.4602 106.807C78.2324 106.369 77.886 106.032 77.4212 105.795C76.9563 105.558 76.3821 105.439 75.6985 105.439C75.0605 105.439 74.4999 105.549 74.0169 105.768C73.5429 105.986 73.1692 106.273 72.8958 106.629C72.6315 106.984 72.4993 107.367 72.4993 107.777H69.97C69.97 107.249 70.1067 106.725 70.3802 106.205C70.6536 105.686 71.0455 105.216 71.5559 104.797C72.0755 104.368 72.6953 104.031 73.4153 103.785C74.1445 103.53 74.9557 103.402 75.8489 103.402C76.9244 103.402 77.8723 103.585 78.6927 103.949C79.5221 104.314 80.1692 104.865 80.6341 105.604C81.108 106.333 81.345 107.249 81.345 108.352V115.242C81.345 115.734 81.386 116.258 81.468 116.814C81.5592 117.37 81.6914 117.849 81.8645 118.25V118.469H79.2259C79.0983 118.177 78.998 117.79 78.9251 117.307C78.8522 116.814 78.8157 116.359 78.8157 115.939ZM79.2532 109.5L79.2805 111.277H76.7239C76.0039 111.277 75.3613 111.337 74.7962 111.455C74.2311 111.564 73.7571 111.733 73.3743 111.961C72.9915 112.189 72.6998 112.476 72.4993 112.822C72.2988 113.16 72.1985 113.556 72.1985 114.012C72.1985 114.477 72.3033 114.9 72.513 115.283C72.7226 115.666 73.0371 115.971 73.4563 116.199C73.8847 116.418 74.4088 116.527 75.0286 116.527C75.8033 116.527 76.4869 116.363 77.0794 116.035C77.6718 115.707 78.1412 115.306 78.4876 114.832C78.843 114.358 79.0345 113.898 79.0618 113.451L80.1419 114.668C80.0781 115.051 79.9049 115.475 79.6223 115.939C79.3398 116.404 78.9615 116.851 78.4876 117.279C78.0227 117.699 77.4667 118.049 76.8196 118.332C76.1816 118.605 75.4615 118.742 74.6595 118.742C73.6568 118.742 72.7773 118.546 72.0208 118.154C71.2734 117.762 70.6901 117.238 70.2708 116.582C69.8606 115.917 69.6555 115.174 69.6555 114.354C69.6555 113.561 69.8105 112.863 70.1204 112.262C70.4303 111.651 70.8769 111.145 71.4602 110.744C72.0436 110.334 72.7454 110.024 73.5657 109.814C74.386 109.605 75.302 109.5 76.3137 109.5H79.2532ZM87.7916 103.676V118.469H85.2486V103.676H87.7916ZM85.0572 99.752C85.0572 99.3418 85.1802 98.9954 85.4263 98.7129C85.6815 98.4303 86.0552 98.2891 86.5474 98.2891C87.0305 98.2891 87.3996 98.4303 87.6548 98.7129C87.9192 98.9954 88.0513 99.3418 88.0513 99.752C88.0513 100.144 87.9192 100.481 87.6548 100.764C87.3996 101.037 87.0305 101.174 86.5474 101.174C86.0552 101.174 85.6815 101.037 85.4263 100.764C85.1802 100.481 85.0572 100.144 85.0572 99.752ZM94.1014 106.834V118.469H91.5721V103.676H93.9647L94.1014 106.834ZM93.4998 110.512L92.4471 110.471C92.4562 109.459 92.6066 108.525 92.8983 107.668C93.1899 106.802 93.6001 106.05 94.1287 105.412C94.6574 104.774 95.2863 104.282 96.0155 103.936C96.7537 103.58 97.5695 103.402 98.4627 103.402C99.1919 103.402 99.8482 103.503 100.431 103.703C101.015 103.895 101.512 104.204 101.922 104.633C102.341 105.061 102.66 105.617 102.879 106.301C103.097 106.975 103.207 107.8 103.207 108.775V118.469H100.664V108.748C100.664 107.973 100.55 107.354 100.322 106.889C100.094 106.415 99.7616 106.073 99.3241 105.863C98.8866 105.645 98.3488 105.535 97.7108 105.535C97.0819 105.535 96.5077 105.667 95.9881 105.932C95.4777 106.196 95.0357 106.561 94.662 107.025C94.2974 107.49 94.0103 108.023 93.8006 108.625C93.6001 109.217 93.4998 109.846 93.4998 110.512ZM115.95 106.615V118.469H113.407V103.676H115.813L115.95 106.615ZM115.43 110.512L114.254 110.471C114.263 109.459 114.396 108.525 114.651 107.668C114.906 106.802 115.284 106.05 115.786 105.412C116.287 104.774 116.911 104.282 117.659 103.936C118.406 103.58 119.272 103.402 120.256 103.402C120.949 103.402 121.587 103.503 122.17 103.703C122.754 103.895 123.26 104.2 123.688 104.619C124.116 105.038 124.449 105.576 124.686 106.232C124.923 106.889 125.041 107.682 125.041 108.611V118.469H122.512V108.734C122.512 107.96 122.38 107.34 122.116 106.875C121.86 106.41 121.496 106.073 121.022 105.863C120.548 105.645 119.992 105.535 119.354 105.535C118.607 105.535 117.982 105.667 117.481 105.932C116.98 106.196 116.579 106.561 116.278 107.025C115.977 107.49 115.758 108.023 115.621 108.625C115.494 109.217 115.43 109.846 115.43 110.512ZM125.014 109.117L123.319 109.637C123.328 108.826 123.46 108.046 123.715 107.299C123.98 106.551 124.358 105.886 124.85 105.303C125.351 104.719 125.967 104.259 126.696 103.922C127.425 103.576 128.259 103.402 129.198 103.402C129.991 103.402 130.692 103.507 131.303 103.717C131.923 103.926 132.442 104.25 132.862 104.688C133.29 105.116 133.614 105.667 133.832 106.342C134.051 107.016 134.161 107.818 134.161 108.748V118.469H131.618V108.721C131.618 107.891 131.485 107.249 131.221 106.793C130.966 106.328 130.601 106.005 130.127 105.822C129.662 105.631 129.107 105.535 128.459 105.535C127.903 105.535 127.411 105.631 126.983 105.822C126.554 106.014 126.194 106.278 125.903 106.615C125.611 106.943 125.388 107.322 125.233 107.75C125.087 108.178 125.014 108.634 125.014 109.117ZM143.847 118.742C142.817 118.742 141.883 118.569 141.045 118.223C140.215 117.867 139.5 117.37 138.898 116.732C138.306 116.094 137.85 115.338 137.531 114.463C137.212 113.588 137.052 112.631 137.052 111.592V111.018C137.052 109.814 137.23 108.743 137.586 107.805C137.941 106.857 138.424 106.055 139.035 105.398C139.646 104.742 140.338 104.245 141.113 103.908C141.888 103.571 142.69 103.402 143.519 103.402C144.577 103.402 145.488 103.585 146.254 103.949C147.028 104.314 147.662 104.824 148.154 105.48C148.646 106.128 149.011 106.893 149.248 107.777C149.485 108.652 149.603 109.609 149.603 110.648V111.783H138.556V109.719H147.074V109.527C147.037 108.871 146.901 108.233 146.664 107.613C146.436 106.993 146.071 106.483 145.57 106.082C145.069 105.681 144.385 105.48 143.519 105.48C142.945 105.48 142.416 105.604 141.933 105.85C141.45 106.087 141.035 106.442 140.689 106.916C140.343 107.39 140.074 107.969 139.882 108.652C139.691 109.336 139.595 110.124 139.595 111.018V111.592C139.595 112.294 139.691 112.954 139.882 113.574C140.083 114.185 140.37 114.723 140.744 115.188C141.127 115.652 141.587 116.017 142.125 116.281C142.672 116.546 143.291 116.678 143.984 116.678C144.877 116.678 145.634 116.495 146.254 116.131C146.873 115.766 147.416 115.279 147.881 114.668L149.412 115.885C149.093 116.368 148.687 116.828 148.195 117.266C147.703 117.703 147.097 118.059 146.377 118.332C145.666 118.605 144.823 118.742 143.847 118.742ZM160.999 115.939V108.324C160.999 107.741 160.88 107.235 160.644 106.807C160.416 106.369 160.069 106.032 159.604 105.795C159.14 105.558 158.565 105.439 157.882 105.439C157.244 105.439 156.683 105.549 156.2 105.768C155.726 105.986 155.353 106.273 155.079 106.629C154.815 106.984 154.683 107.367 154.683 107.777H152.153C152.153 107.249 152.29 106.725 152.563 106.205C152.837 105.686 153.229 105.216 153.739 104.797C154.259 104.368 154.879 104.031 155.599 103.785C156.328 103.53 157.139 103.402 158.032 103.402C159.108 103.402 160.056 103.585 160.876 103.949C161.705 104.314 162.353 104.865 162.817 105.604C163.291 106.333 163.528 107.249 163.528 108.352V115.242C163.528 115.734 163.569 116.258 163.651 116.814C163.742 117.37 163.875 117.849 164.048 118.25V118.469H161.409C161.282 118.177 161.181 117.79 161.108 117.307C161.035 116.814 160.999 116.359 160.999 115.939ZM161.436 109.5L161.464 111.277H158.907C158.187 111.277 157.545 111.337 156.979 111.455C156.414 111.564 155.94 111.733 155.558 111.961C155.175 112.189 154.883 112.476 154.683 112.822C154.482 113.16 154.382 113.556 154.382 114.012C154.382 114.477 154.487 114.9 154.696 115.283C154.906 115.666 155.22 115.971 155.64 116.199C156.068 116.418 156.592 116.527 157.212 116.527C157.987 116.527 158.67 116.363 159.263 116.035C159.855 115.707 160.325 115.306 160.671 114.832C161.026 114.358 161.218 113.898 161.245 113.451L162.325 114.668C162.261 115.051 162.088 115.475 161.806 115.939C161.523 116.404 161.145 116.851 160.671 117.279C160.206 117.699 159.65 118.049 159.003 118.332C158.365 118.605 157.645 118.742 156.843 118.742C155.84 118.742 154.961 118.546 154.204 118.154C153.457 117.762 152.873 117.238 152.454 116.582C152.044 115.917 151.839 115.174 151.839 114.354C151.839 113.561 151.994 112.863 152.304 112.262C152.614 111.651 153.06 111.145 153.644 110.744C154.227 110.334 154.929 110.024 155.749 109.814C156.569 109.605 157.485 109.5 158.497 109.5H161.436ZM175.84 114.545C175.84 114.18 175.758 113.843 175.594 113.533C175.439 113.214 175.115 112.927 174.623 112.672C174.14 112.408 173.411 112.18 172.436 111.988C171.615 111.815 170.873 111.61 170.207 111.373C169.551 111.136 168.99 110.849 168.526 110.512C168.07 110.174 167.719 109.778 167.473 109.322C167.227 108.867 167.104 108.333 167.104 107.723C167.104 107.139 167.231 106.588 167.487 106.068C167.751 105.549 168.12 105.089 168.594 104.688C169.077 104.286 169.656 103.972 170.33 103.744C171.005 103.516 171.757 103.402 172.586 103.402C173.771 103.402 174.783 103.612 175.621 104.031C176.46 104.451 177.102 105.011 177.549 105.713C177.996 106.406 178.219 107.176 178.219 108.023H175.69C175.69 107.613 175.567 107.217 175.321 106.834C175.084 106.442 174.733 106.118 174.268 105.863C173.812 105.608 173.252 105.48 172.586 105.48C171.884 105.48 171.315 105.59 170.877 105.809C170.449 106.018 170.134 106.287 169.934 106.615C169.742 106.943 169.647 107.29 169.647 107.654C169.647 107.928 169.692 108.174 169.783 108.393C169.884 108.602 170.057 108.798 170.303 108.98C170.549 109.154 170.895 109.318 171.342 109.473C171.789 109.628 172.358 109.783 173.051 109.938C174.263 110.211 175.261 110.539 176.045 110.922C176.829 111.305 177.412 111.774 177.795 112.33C178.178 112.886 178.369 113.561 178.369 114.354C178.369 115.001 178.233 115.593 177.959 116.131C177.695 116.669 177.308 117.133 176.797 117.525C176.296 117.908 175.694 118.209 174.992 118.428C174.3 118.637 173.52 118.742 172.655 118.742C171.351 118.742 170.248 118.51 169.346 118.045C168.444 117.58 167.76 116.979 167.295 116.24C166.83 115.502 166.598 114.723 166.598 113.902H169.141C169.177 114.595 169.378 115.146 169.742 115.557C170.107 115.958 170.554 116.245 171.082 116.418C171.611 116.582 172.135 116.664 172.655 116.664C173.347 116.664 173.926 116.573 174.391 116.391C174.865 116.208 175.225 115.958 175.471 115.639C175.717 115.32 175.84 114.955 175.84 114.545ZM190.462 115.051V103.676H193.005V118.469H190.585L190.462 115.051ZM190.941 111.934L191.994 111.906C191.994 112.891 191.889 113.802 191.679 114.641C191.479 115.47 191.151 116.19 190.695 116.801C190.239 117.411 189.642 117.89 188.904 118.236C188.166 118.574 187.268 118.742 186.21 118.742C185.49 118.742 184.83 118.637 184.228 118.428C183.636 118.218 183.125 117.895 182.697 117.457C182.268 117.02 181.936 116.45 181.699 115.748C181.471 115.046 181.357 114.203 181.357 113.219V103.676H183.886V113.246C183.886 113.911 183.959 114.463 184.105 114.9C184.26 115.329 184.465 115.671 184.72 115.926C184.985 116.172 185.276 116.345 185.595 116.445C185.923 116.546 186.261 116.596 186.607 116.596C187.682 116.596 188.535 116.391 189.164 115.98C189.792 115.561 190.244 115.001 190.517 114.299C190.8 113.588 190.941 112.799 190.941 111.934ZM199.11 106V118.469H196.581V103.676H199.042L199.11 106ZM203.731 103.594L203.718 105.945C203.508 105.9 203.307 105.872 203.116 105.863C202.934 105.845 202.724 105.836 202.487 105.836C201.904 105.836 201.389 105.927 200.942 106.109C200.496 106.292 200.117 106.547 199.807 106.875C199.498 107.203 199.251 107.595 199.069 108.051C198.896 108.497 198.782 108.99 198.727 109.527L198.016 109.938C198.016 109.044 198.103 108.206 198.276 107.422C198.458 106.638 198.736 105.945 199.11 105.344C199.484 104.733 199.958 104.259 200.532 103.922C201.115 103.576 201.808 103.402 202.61 103.402C202.792 103.402 203.002 103.425 203.239 103.471C203.476 103.507 203.64 103.548 203.731 103.594ZM211.654 118.742C210.624 118.742 209.69 118.569 208.852 118.223C208.022 117.867 207.307 117.37 206.705 116.732C206.113 116.094 205.657 115.338 205.338 114.463C205.019 113.588 204.859 112.631 204.859 111.592V111.018C204.859 109.814 205.037 108.743 205.393 107.805C205.748 106.857 206.231 106.055 206.842 105.398C207.453 104.742 208.145 104.245 208.92 103.908C209.695 103.571 210.497 103.402 211.326 103.402C212.384 103.402 213.295 103.585 214.061 103.949C214.835 104.314 215.469 104.824 215.961 105.48C216.453 106.128 216.818 106.893 217.055 107.777C217.292 108.652 217.41 109.609 217.41 110.648V111.783H206.363V109.719H214.881V109.527C214.844 108.871 214.708 108.233 214.471 107.613C214.243 106.993 213.878 106.483 213.377 106.082C212.876 105.681 212.192 105.48 211.326 105.48C210.752 105.48 210.223 105.604 209.74 105.85C209.257 106.087 208.843 106.442 208.496 106.916C208.15 107.39 207.881 107.969 207.69 108.652C207.498 109.336 207.402 110.124 207.402 111.018V111.592C207.402 112.294 207.498 112.954 207.69 113.574C207.89 114.185 208.177 114.723 208.551 115.188C208.934 115.652 209.394 116.017 209.932 116.281C210.479 116.546 211.098 116.678 211.791 116.678C212.684 116.678 213.441 116.495 214.061 116.131C214.68 115.766 215.223 115.279 215.688 114.668L217.219 115.885C216.9 116.368 216.494 116.828 216.002 117.266C215.51 117.703 214.904 118.059 214.184 118.332C213.473 118.605 212.63 118.742 211.654 118.742Z" fill="#6A6A6A"/>
<path d="M315.623 98.5625V118.469H312.971L302.949 103.115V118.469H300.311V98.5625H302.949L313.012 113.957V98.5625H315.623ZM328.359 115.939V108.324C328.359 107.741 328.24 107.235 328.003 106.807C327.775 106.369 327.429 106.032 326.964 105.795C326.499 105.558 325.925 105.439 325.241 105.439C324.603 105.439 324.043 105.549 323.56 105.768C323.086 105.986 322.712 106.273 322.439 106.629C322.174 106.984 322.042 107.367 322.042 107.777H319.513C319.513 107.249 319.65 106.725 319.923 106.205C320.197 105.686 320.588 105.216 321.099 104.797C321.618 104.368 322.238 104.031 322.958 103.785C323.687 103.53 324.499 103.402 325.392 103.402C326.467 103.402 327.415 103.585 328.236 103.949C329.065 104.314 329.712 104.865 330.177 105.604C330.651 106.333 330.888 107.249 330.888 108.352V115.242C330.888 115.734 330.929 116.258 331.011 116.814C331.102 117.37 331.234 117.849 331.407 118.25V118.469H328.769C328.641 118.177 328.541 117.79 328.468 117.307C328.395 116.814 328.359 116.359 328.359 115.939ZM328.796 109.5L328.824 111.277H326.267C325.547 111.277 324.904 111.337 324.339 111.455C323.774 111.564 323.3 111.733 322.917 111.961C322.534 112.189 322.243 112.476 322.042 112.822C321.842 113.16 321.741 113.556 321.741 114.012C321.741 114.477 321.846 114.9 322.056 115.283C322.266 115.666 322.58 115.971 322.999 116.199C323.428 116.418 323.952 116.527 324.572 116.527C325.346 116.527 326.03 116.363 326.622 116.035C327.215 115.707 327.684 115.306 328.031 114.832C328.386 114.358 328.577 113.898 328.605 113.451L329.685 114.668C329.621 115.051 329.448 115.475 329.165 115.939C328.883 116.404 328.505 116.851 328.031 117.279C327.566 117.699 327.01 118.049 326.363 118.332C325.725 118.605 325.005 118.742 324.202 118.742C323.2 118.742 322.32 118.546 321.564 118.154C320.816 117.762 320.233 117.238 319.814 116.582C319.404 115.917 319.199 115.174 319.199 114.354C319.199 113.561 319.353 112.863 319.663 112.262C319.973 111.651 320.42 111.145 321.003 110.744C321.587 110.334 322.288 110.024 323.109 109.814C323.929 109.605 324.845 109.5 325.857 109.5H328.796ZM337.102 106.615V118.469H334.559V103.676H336.965L337.102 106.615ZM336.583 110.512L335.407 110.471C335.416 109.459 335.548 108.525 335.803 107.668C336.058 106.802 336.437 106.05 336.938 105.412C337.439 104.774 338.064 104.282 338.811 103.936C339.558 103.58 340.424 103.402 341.409 103.402C342.101 103.402 342.739 103.503 343.323 103.703C343.906 103.895 344.412 104.2 344.84 104.619C345.269 105.038 345.601 105.576 345.838 106.232C346.075 106.889 346.194 107.682 346.194 108.611V118.469H343.665V108.734C343.665 107.96 343.532 107.34 343.268 106.875C343.013 106.41 342.648 106.073 342.174 105.863C341.7 105.645 341.144 105.535 340.506 105.535C339.759 105.535 339.135 105.667 338.633 105.932C338.132 106.196 337.731 106.561 337.43 107.025C337.129 107.49 336.911 108.023 336.774 108.625C336.646 109.217 336.583 109.846 336.583 110.512ZM346.167 109.117L344.471 109.637C344.48 108.826 344.613 108.046 344.868 107.299C345.132 106.551 345.51 105.886 346.002 105.303C346.504 104.719 347.119 104.259 347.848 103.922C348.577 103.576 349.411 103.402 350.35 103.402C351.143 103.402 351.845 103.507 352.456 103.717C353.075 103.926 353.595 104.25 354.014 104.688C354.443 105.116 354.766 105.667 354.985 106.342C355.204 107.016 355.313 107.818 355.313 108.748V118.469H352.77V108.721C352.77 107.891 352.638 107.249 352.374 106.793C352.118 106.328 351.754 106.005 351.28 105.822C350.815 105.631 350.259 105.535 349.612 105.535C349.056 105.535 348.564 105.631 348.135 105.822C347.707 106.014 347.347 106.278 347.055 106.615C346.764 106.943 346.54 107.322 346.385 107.75C346.239 108.178 346.167 108.634 346.167 109.117ZM365 118.742C363.97 118.742 363.036 118.569 362.197 118.223C361.368 117.867 360.652 117.37 360.051 116.732C359.458 116.094 359.002 115.338 358.683 114.463C358.364 113.588 358.205 112.631 358.205 111.592V111.018C358.205 109.814 358.383 108.743 358.738 107.805C359.094 106.857 359.577 106.055 360.187 105.398C360.798 104.742 361.491 104.245 362.265 103.908C363.04 103.571 363.842 103.402 364.672 103.402C365.729 103.402 366.64 103.585 367.406 103.949C368.181 104.314 368.814 104.824 369.306 105.48C369.799 106.128 370.163 106.893 370.4 107.777C370.637 108.652 370.756 109.609 370.756 110.648V111.783H359.709V109.719H368.226V109.527C368.19 108.871 368.053 108.233 367.816 107.613C367.588 106.993 367.224 106.483 366.722 106.082C366.221 105.681 365.538 105.48 364.672 105.48C364.097 105.48 363.569 105.604 363.086 105.85C362.603 106.087 362.188 106.442 361.842 106.916C361.495 107.39 361.226 107.969 361.035 108.652C360.844 109.336 360.748 110.124 360.748 111.018V111.592C360.748 112.294 360.844 112.954 361.035 113.574C361.236 114.185 361.523 114.723 361.896 115.188C362.279 115.652 362.739 116.017 363.277 116.281C363.824 116.546 364.444 116.678 365.137 116.678C366.03 116.678 366.786 116.495 367.406 116.131C368.026 115.766 368.568 115.279 369.033 114.668L370.564 115.885C370.245 116.368 369.84 116.828 369.347 117.266C368.855 117.703 368.249 118.059 367.529 118.332C366.818 118.605 365.975 118.742 365 118.742Z" fill="#6A6A6A"/>
<path d="M315.623 146.797V166.703H312.971L302.949 151.35V166.703H300.311V146.797H302.949L313.012 162.191V146.797H315.623ZM328.359 164.174V156.559C328.359 155.975 328.24 155.469 328.003 155.041C327.775 154.604 327.429 154.266 326.964 154.029C326.499 153.792 325.925 153.674 325.241 153.674C324.603 153.674 324.043 153.783 323.56 154.002C323.086 154.221 322.712 154.508 322.439 154.863C322.174 155.219 322.042 155.602 322.042 156.012H319.513C319.513 155.483 319.65 154.959 319.923 154.439C320.197 153.92 320.588 153.451 321.099 153.031C321.618 152.603 322.238 152.266 322.958 152.02C323.687 151.764 324.499 151.637 325.392 151.637C326.467 151.637 327.415 151.819 328.236 152.184C329.065 152.548 329.712 153.1 330.177 153.838C330.651 154.567 330.888 155.483 330.888 156.586V163.477C330.888 163.969 330.929 164.493 331.011 165.049C331.102 165.605 331.234 166.083 331.407 166.484V166.703H328.769C328.641 166.411 328.541 166.024 328.468 165.541C328.395 165.049 328.359 164.593 328.359 164.174ZM328.796 157.734L328.824 159.512H326.267C325.547 159.512 324.904 159.571 324.339 159.689C323.774 159.799 323.3 159.967 322.917 160.195C322.534 160.423 322.243 160.71 322.042 161.057C321.842 161.394 321.741 161.79 321.741 162.246C321.741 162.711 321.846 163.135 322.056 163.518C322.266 163.9 322.58 164.206 322.999 164.434C323.428 164.652 323.952 164.762 324.572 164.762C325.346 164.762 326.03 164.598 326.622 164.27C327.215 163.941 327.684 163.54 328.031 163.066C328.386 162.592 328.577 162.132 328.605 161.686L329.685 162.902C329.621 163.285 329.448 163.709 329.165 164.174C328.883 164.639 328.505 165.085 328.031 165.514C327.566 165.933 327.01 166.284 326.363 166.566C325.725 166.84 325.005 166.977 324.202 166.977C323.2 166.977 322.32 166.781 321.564 166.389C320.816 165.997 320.233 165.473 319.814 164.816C319.404 164.151 319.199 163.408 319.199 162.588C319.199 161.795 319.353 161.098 319.663 160.496C319.973 159.885 320.42 159.38 321.003 158.979C321.587 158.568 322.288 158.258 323.109 158.049C323.929 157.839 324.845 157.734 325.857 157.734H328.796ZM337.102 154.85V166.703H334.559V151.91H336.965L337.102 154.85ZM336.583 158.746L335.407 158.705C335.416 157.693 335.548 156.759 335.803 155.902C336.058 155.036 336.437 154.285 336.938 153.646C337.439 153.008 338.064 152.516 338.811 152.17C339.558 151.814 340.424 151.637 341.409 151.637C342.101 151.637 342.739 151.737 343.323 151.938C343.906 152.129 344.412 152.434 344.84 152.854C345.269 153.273 345.601 153.811 345.838 154.467C346.075 155.123 346.194 155.916 346.194 156.846V166.703H343.665V156.969C343.665 156.194 343.532 155.574 343.268 155.109C343.013 154.645 342.648 154.307 342.174 154.098C341.7 153.879 341.144 153.77 340.506 153.77C339.759 153.77 339.135 153.902 338.633 154.166C338.132 154.43 337.731 154.795 337.43 155.26C337.129 155.725 336.911 156.258 336.774 156.859C336.646 157.452 336.583 158.081 336.583 158.746ZM346.167 157.352L344.471 157.871C344.48 157.06 344.613 156.281 344.868 155.533C345.132 154.786 345.51 154.12 346.002 153.537C346.504 152.954 347.119 152.493 347.848 152.156C348.577 151.81 349.411 151.637 350.35 151.637C351.143 151.637 351.845 151.742 352.456 151.951C353.075 152.161 353.595 152.484 354.014 152.922C354.443 153.35 354.766 153.902 354.985 154.576C355.204 155.251 355.313 156.053 355.313 156.982V166.703H352.77V156.955C352.77 156.126 352.638 155.483 352.374 155.027C352.118 154.562 351.754 154.239 351.28 154.057C350.815 153.865 350.259 153.77 349.612 153.77C349.056 153.77 348.564 153.865 348.135 154.057C347.707 154.248 347.347 154.512 347.055 154.85C346.764 155.178 346.54 155.556 346.385 155.984C346.239 156.413 346.167 156.868 346.167 157.352ZM365 166.977C363.97 166.977 363.036 166.803 362.197 166.457C361.368 166.102 360.652 165.605 360.051 164.967C359.458 164.329 359.002 163.572 358.683 162.697C358.364 161.822 358.205 160.865 358.205 159.826V159.252C358.205 158.049 358.383 156.978 358.738 156.039C359.094 155.091 359.577 154.289 360.187 153.633C360.798 152.977 361.491 152.48 362.265 152.143C363.04 151.805 363.842 151.637 364.672 151.637C365.729 151.637 366.64 151.819 367.406 152.184C368.181 152.548 368.814 153.059 369.306 153.715C369.799 154.362 370.163 155.128 370.4 156.012C370.637 156.887 370.756 157.844 370.756 158.883V160.018H359.709V157.953H368.226V157.762C368.19 157.105 368.053 156.467 367.816 155.848C367.588 155.228 367.224 154.717 366.722 154.316C366.221 153.915 365.538 153.715 364.672 153.715C364.097 153.715 363.569 153.838 363.086 154.084C362.603 154.321 362.188 154.676 361.842 155.15C361.495 155.624 361.226 156.203 361.035 156.887C360.844 157.57 360.748 158.359 360.748 159.252V159.826C360.748 160.528 360.844 161.189 361.035 161.809C361.236 162.419 361.523 162.957 361.896 163.422C362.279 163.887 362.739 164.251 363.277 164.516C363.824 164.78 364.444 164.912 365.137 164.912C366.03 164.912 366.786 164.73 367.406 164.365C368.026 164.001 368.568 163.513 369.033 162.902L370.564 164.119C370.245 164.602 369.84 165.062 369.347 165.5C368.855 165.938 368.249 166.293 367.529 166.566C366.818 166.84 365.975 166.977 365 166.977Z" fill="#6A6A6A"/>
<path d="M316.623 195.031V214.938H313.971L303.949 199.584V214.938H301.311V195.031H303.949L314.012 210.426V195.031H316.623ZM329.359 212.408V204.793C329.359 204.21 329.24 203.704 329.003 203.275C328.775 202.838 328.429 202.501 327.964 202.264C327.499 202.027 326.925 201.908 326.241 201.908C325.603 201.908 325.043 202.018 324.56 202.236C324.086 202.455 323.712 202.742 323.439 203.098C323.174 203.453 323.042 203.836 323.042 204.246H320.513C320.513 203.717 320.65 203.193 320.923 202.674C321.197 202.154 321.588 201.685 322.099 201.266C322.618 200.837 323.238 200.5 323.958 200.254C324.687 199.999 325.499 199.871 326.392 199.871C327.467 199.871 328.415 200.053 329.236 200.418C330.065 200.783 330.712 201.334 331.177 202.072C331.651 202.801 331.888 203.717 331.888 204.82V211.711C331.888 212.203 331.929 212.727 332.011 213.283C332.102 213.839 332.234 214.318 332.407 214.719V214.938H329.769C329.641 214.646 329.541 214.258 329.468 213.775C329.395 213.283 329.359 212.827 329.359 212.408ZM329.796 205.969L329.824 207.746H327.267C326.547 207.746 325.904 207.805 325.339 207.924C324.774 208.033 324.3 208.202 323.917 208.43C323.534 208.658 323.243 208.945 323.042 209.291C322.842 209.628 322.741 210.025 322.741 210.48C322.741 210.945 322.846 211.369 323.056 211.752C323.266 212.135 323.58 212.44 323.999 212.668C324.428 212.887 324.952 212.996 325.572 212.996C326.346 212.996 327.03 212.832 327.622 212.504C328.215 212.176 328.684 211.775 329.031 211.301C329.386 210.827 329.577 210.367 329.605 209.92L330.685 211.137C330.621 211.52 330.448 211.943 330.165 212.408C329.883 212.873 329.505 213.32 329.031 213.748C328.566 214.167 328.01 214.518 327.363 214.801C326.725 215.074 326.005 215.211 325.202 215.211C324.2 215.211 323.32 215.015 322.564 214.623C321.816 214.231 321.233 213.707 320.814 213.051C320.404 212.385 320.199 211.643 320.199 210.822C320.199 210.029 320.353 209.332 320.663 208.73C320.973 208.12 321.42 207.614 322.003 207.213C322.587 206.803 323.288 206.493 324.109 206.283C324.929 206.074 325.845 205.969 326.857 205.969H329.796ZM338.102 203.084V214.938H335.559V200.145H337.965L338.102 203.084ZM337.583 206.98L336.407 206.939C336.416 205.928 336.548 204.993 336.803 204.137C337.058 203.271 337.437 202.519 337.938 201.881C338.439 201.243 339.064 200.751 339.811 200.404C340.558 200.049 341.424 199.871 342.409 199.871C343.101 199.871 343.739 199.971 344.323 200.172C344.906 200.363 345.412 200.669 345.84 201.088C346.269 201.507 346.601 202.045 346.838 202.701C347.075 203.357 347.194 204.15 347.194 205.08V214.938H344.665V205.203C344.665 204.428 344.532 203.809 344.268 203.344C344.013 202.879 343.648 202.542 343.174 202.332C342.7 202.113 342.144 202.004 341.506 202.004C340.759 202.004 340.135 202.136 339.633 202.4C339.132 202.665 338.731 203.029 338.43 203.494C338.129 203.959 337.911 204.492 337.774 205.094C337.646 205.686 337.583 206.315 337.583 206.98ZM347.167 205.586L345.471 206.105C345.48 205.294 345.613 204.515 345.868 203.768C346.132 203.02 346.51 202.355 347.002 201.771C347.504 201.188 348.119 200.728 348.848 200.391C349.577 200.044 350.411 199.871 351.35 199.871C352.143 199.871 352.845 199.976 353.456 200.186C354.075 200.395 354.595 200.719 355.014 201.156C355.443 201.585 355.766 202.136 355.985 202.811C356.204 203.485 356.313 204.287 356.313 205.217V214.938H353.77V205.189C353.77 204.36 353.638 203.717 353.374 203.262C353.118 202.797 352.754 202.473 352.28 202.291C351.815 202.1 351.259 202.004 350.612 202.004C350.056 202.004 349.564 202.1 349.135 202.291C348.707 202.482 348.347 202.747 348.055 203.084C347.764 203.412 347.54 203.79 347.385 204.219C347.239 204.647 347.167 205.103 347.167 205.586ZM366 215.211C364.97 215.211 364.036 215.038 363.197 214.691C362.368 214.336 361.652 213.839 361.051 213.201C360.458 212.563 360.002 211.807 359.683 210.932C359.364 210.057 359.205 209.1 359.205 208.061V207.486C359.205 206.283 359.383 205.212 359.738 204.273C360.094 203.326 360.577 202.523 361.187 201.867C361.798 201.211 362.491 200.714 363.265 200.377C364.04 200.04 364.842 199.871 365.672 199.871C366.729 199.871 367.64 200.053 368.406 200.418C369.181 200.783 369.814 201.293 370.306 201.949C370.799 202.596 371.163 203.362 371.4 204.246C371.637 205.121 371.756 206.078 371.756 207.117V208.252H360.709V206.188H369.226V205.996C369.19 205.34 369.053 204.702 368.816 204.082C368.588 203.462 368.224 202.952 367.722 202.551C367.221 202.15 366.538 201.949 365.672 201.949C365.097 201.949 364.569 202.072 364.086 202.318C363.603 202.555 363.188 202.911 362.842 203.385C362.495 203.859 362.226 204.438 362.035 205.121C361.844 205.805 361.748 206.593 361.748 207.486V208.061C361.748 208.762 361.844 209.423 362.035 210.043C362.236 210.654 362.523 211.191 362.896 211.656C363.279 212.121 363.739 212.486 364.277 212.75C364.824 213.014 365.444 213.146 366.137 213.146C367.03 213.146 367.786 212.964 368.406 212.6C369.026 212.235 369.568 211.747 370.033 211.137L371.564 212.354C371.245 212.837 370.84 213.297 370.347 213.734C369.855 214.172 369.249 214.527 368.529 214.801C367.818 215.074 366.975 215.211 366 215.211Z" fill="#6A6A6A"/>
<path d="M440.732 98.5078V118.469H437.109V102.732L432.311 104.318V101.393L440.322 98.5078H440.732ZM460.331 106.807V110.156C460.331 111.688 460.176 112.995 459.866 114.08C459.557 115.165 459.11 116.053 458.527 116.746C457.943 117.43 457.246 117.936 456.435 118.264C455.624 118.583 454.721 118.742 453.728 118.742C452.935 118.742 452.197 118.642 451.513 118.441C450.829 118.232 450.214 117.913 449.667 117.484C449.13 117.047 448.665 116.491 448.273 115.816C447.89 115.142 447.594 114.335 447.384 113.396C447.184 112.458 447.083 111.378 447.083 110.156V106.807C447.083 105.275 447.238 103.972 447.548 102.896C447.867 101.821 448.318 100.941 448.902 100.258C449.485 99.5742 450.182 99.0775 450.993 98.7676C451.805 98.4486 452.707 98.2891 453.7 98.2891C454.503 98.2891 455.241 98.3893 455.915 98.5898C456.599 98.7904 457.21 99.1048 457.747 99.5332C458.294 99.9525 458.759 100.499 459.142 101.174C459.525 101.839 459.816 102.641 460.017 103.58C460.227 104.51 460.331 105.585 460.331 106.807ZM456.722 110.648V106.301C456.722 105.535 456.676 104.87 456.585 104.305C456.503 103.73 456.38 103.243 456.216 102.842C456.052 102.441 455.847 102.117 455.601 101.871C455.355 101.616 455.072 101.429 454.753 101.311C454.434 101.192 454.083 101.133 453.7 101.133C453.227 101.133 452.803 101.229 452.429 101.42C452.055 101.602 451.741 101.894 451.486 102.295C451.23 102.696 451.034 103.229 450.898 103.895C450.77 104.551 450.706 105.353 450.706 106.301V110.648C450.706 111.414 450.747 112.084 450.829 112.658C450.921 113.232 451.048 113.725 451.212 114.135C451.385 114.545 451.59 114.882 451.827 115.146C452.074 115.402 452.356 115.593 452.675 115.721C452.994 115.839 453.345 115.898 453.728 115.898C454.211 115.898 454.635 115.803 454.999 115.611C455.373 115.42 455.687 115.119 455.943 114.709C456.198 114.29 456.389 113.747 456.517 113.082C456.654 112.408 456.722 111.596 456.722 110.648ZM462.772 103.443V102.391C462.772 101.634 462.936 100.946 463.264 100.326C463.592 99.7064 464.071 99.2096 464.7 98.8359C465.338 98.4622 466.113 98.2754 467.024 98.2754C467.954 98.2754 468.733 98.4622 469.362 98.8359C470 99.2096 470.478 99.7064 470.797 100.326C471.126 100.946 471.29 101.634 471.29 102.391V103.443C471.29 104.182 471.126 104.861 470.797 105.48C470.478 106.1 470.004 106.597 469.376 106.971C468.747 107.344 467.972 107.531 467.051 107.531C466.131 107.531 465.351 107.344 464.713 106.971C464.075 106.597 463.592 106.1 463.264 105.48C462.936 104.861 462.772 104.182 462.772 103.443ZM465.219 102.391V103.443C465.219 103.79 465.283 104.118 465.411 104.428C465.547 104.729 465.753 104.975 466.026 105.166C466.299 105.357 466.641 105.453 467.051 105.453C467.461 105.453 467.794 105.357 468.049 105.166C468.314 104.975 468.51 104.729 468.637 104.428C468.774 104.118 468.842 103.79 468.842 103.443V102.391C468.842 102.035 468.774 101.702 468.637 101.393C468.51 101.083 468.309 100.832 468.036 100.641C467.771 100.449 467.434 100.354 467.024 100.354C466.623 100.354 466.286 100.449 466.012 100.641C465.748 100.832 465.547 101.083 465.411 101.393C465.283 101.702 465.219 102.035 465.219 102.391ZM472.329 114.641V113.588C472.329 112.84 472.493 112.157 472.821 111.537C473.158 110.917 473.646 110.421 474.284 110.047C474.922 109.673 475.692 109.486 476.594 109.486C477.533 109.486 478.317 109.673 478.946 110.047C479.575 110.421 480.049 110.917 480.368 111.537C480.696 112.157 480.86 112.84 480.86 113.588V114.641C480.86 115.388 480.696 116.072 480.368 116.691C480.049 117.311 479.575 117.808 478.946 118.182C478.326 118.555 477.556 118.742 476.635 118.742C475.715 118.742 474.931 118.555 474.284 118.182C473.646 117.808 473.158 117.311 472.821 116.691C472.493 116.072 472.329 115.388 472.329 114.641ZM474.79 113.588V114.641C474.79 114.996 474.863 115.329 475.008 115.639C475.154 115.939 475.364 116.186 475.637 116.377C475.92 116.568 476.248 116.664 476.622 116.664C477.077 116.664 477.437 116.568 477.702 116.377C477.966 116.186 478.153 115.939 478.262 115.639C478.372 115.329 478.426 114.996 478.426 114.641V113.588C478.426 113.232 478.358 112.904 478.221 112.604C478.085 112.294 477.879 112.043 477.606 111.852C477.342 111.66 477.004 111.564 476.594 111.564C476.193 111.564 475.856 111.66 475.583 111.852C475.318 112.043 475.118 112.294 474.981 112.604C474.853 112.904 474.79 113.232 474.79 113.588ZM477.497 101.406L467.776 116.965L465.985 115.967L475.706 100.408L477.497 101.406Z" fill="#626262"/>
<path d="M440.732 146.742V166.703H437.109V150.967L432.311 152.553V149.627L440.322 146.742H440.732ZM460.331 155.041V158.391C460.331 159.922 460.176 161.23 459.866 162.314C459.557 163.399 459.11 164.288 458.527 164.98C457.943 165.664 457.246 166.17 456.435 166.498C455.624 166.817 454.721 166.977 453.728 166.977C452.935 166.977 452.197 166.876 451.513 166.676C450.829 166.466 450.214 166.147 449.667 165.719C449.13 165.281 448.665 164.725 448.273 164.051C447.89 163.376 447.594 162.57 447.384 161.631C447.184 160.692 447.083 159.612 447.083 158.391V155.041C447.083 153.51 447.238 152.206 447.548 151.131C447.867 150.055 448.318 149.176 448.902 148.492C449.485 147.809 450.182 147.312 450.993 147.002C451.805 146.683 452.707 146.523 453.7 146.523C454.503 146.523 455.241 146.624 455.915 146.824C456.599 147.025 457.21 147.339 457.747 147.768C458.294 148.187 458.759 148.734 459.142 149.408C459.525 150.074 459.816 150.876 460.017 151.814C460.227 152.744 460.331 153.82 460.331 155.041ZM456.722 158.883V154.535C456.722 153.77 456.676 153.104 456.585 152.539C456.503 151.965 456.38 151.477 456.216 151.076C456.052 150.675 455.847 150.352 455.601 150.105C455.355 149.85 455.072 149.663 454.753 149.545C454.434 149.426 454.083 149.367 453.7 149.367C453.227 149.367 452.803 149.463 452.429 149.654C452.055 149.837 451.741 150.128 451.486 150.529C451.23 150.93 451.034 151.464 450.898 152.129C450.77 152.785 450.706 153.587 450.706 154.535V158.883C450.706 159.648 450.747 160.318 450.829 160.893C450.921 161.467 451.048 161.959 451.212 162.369C451.385 162.779 451.59 163.117 451.827 163.381C452.074 163.636 452.356 163.827 452.675 163.955C452.994 164.074 453.345 164.133 453.728 164.133C454.211 164.133 454.635 164.037 454.999 163.846C455.373 163.654 455.687 163.354 455.943 162.943C456.198 162.524 456.389 161.982 456.517 161.316C456.654 160.642 456.722 159.831 456.722 158.883ZM462.772 151.678V150.625C462.772 149.868 462.936 149.18 463.264 148.561C463.592 147.941 464.071 147.444 464.7 147.07C465.338 146.697 466.113 146.51 467.024 146.51C467.954 146.51 468.733 146.697 469.362 147.07C470 147.444 470.478 147.941 470.797 148.561C471.126 149.18 471.29 149.868 471.29 150.625V151.678C471.29 152.416 471.126 153.095 470.797 153.715C470.478 154.335 470.004 154.831 469.376 155.205C468.747 155.579 467.972 155.766 467.051 155.766C466.131 155.766 465.351 155.579 464.713 155.205C464.075 154.831 463.592 154.335 463.264 153.715C462.936 153.095 462.772 152.416 462.772 151.678ZM465.219 150.625V151.678C465.219 152.024 465.283 152.352 465.411 152.662C465.547 152.963 465.753 153.209 466.026 153.4C466.299 153.592 466.641 153.688 467.051 153.688C467.461 153.688 467.794 153.592 468.049 153.4C468.314 153.209 468.51 152.963 468.637 152.662C468.774 152.352 468.842 152.024 468.842 151.678V150.625C468.842 150.27 468.774 149.937 468.637 149.627C468.51 149.317 468.309 149.066 468.036 148.875C467.771 148.684 467.434 148.588 467.024 148.588C466.623 148.588 466.286 148.684 466.012 148.875C465.748 149.066 465.547 149.317 465.411 149.627C465.283 149.937 465.219 150.27 465.219 150.625ZM472.329 162.875V161.822C472.329 161.075 472.493 160.391 472.821 159.771C473.158 159.152 473.646 158.655 474.284 158.281C474.922 157.908 475.692 157.721 476.594 157.721C477.533 157.721 478.317 157.908 478.946 158.281C479.575 158.655 480.049 159.152 480.368 159.771C480.696 160.391 480.86 161.075 480.86 161.822V162.875C480.86 163.622 480.696 164.306 480.368 164.926C480.049 165.546 479.575 166.042 478.946 166.416C478.326 166.79 477.556 166.977 476.635 166.977C475.715 166.977 474.931 166.79 474.284 166.416C473.646 166.042 473.158 165.546 472.821 164.926C472.493 164.306 472.329 163.622 472.329 162.875ZM474.79 161.822V162.875C474.79 163.23 474.863 163.563 475.008 163.873C475.154 164.174 475.364 164.42 475.637 164.611C475.92 164.803 476.248 164.898 476.622 164.898C477.077 164.898 477.437 164.803 477.702 164.611C477.966 164.42 478.153 164.174 478.262 163.873C478.372 163.563 478.426 163.23 478.426 162.875V161.822C478.426 161.467 478.358 161.139 478.221 160.838C478.085 160.528 477.879 160.277 477.606 160.086C477.342 159.895 477.004 159.799 476.594 159.799C476.193 159.799 475.856 159.895 475.583 160.086C475.318 160.277 475.118 160.528 474.981 160.838C474.853 161.139 474.79 161.467 474.79 161.822ZM477.497 149.641L467.776 165.199L465.985 164.201L475.706 148.643L477.497 149.641Z" fill="#626262"/>
<path d="M441.732 194.977V214.938H438.109V199.201L433.311 200.787V197.861L441.322 194.977H441.732ZM461.331 203.275V206.625C461.331 208.156 461.176 209.464 460.866 210.549C460.557 211.633 460.11 212.522 459.527 213.215C458.943 213.898 458.246 214.404 457.435 214.732C456.624 215.051 455.721 215.211 454.728 215.211C453.935 215.211 453.197 215.111 452.513 214.91C451.829 214.701 451.214 214.382 450.667 213.953C450.13 213.516 449.665 212.96 449.273 212.285C448.89 211.611 448.594 210.804 448.384 209.865C448.184 208.926 448.083 207.846 448.083 206.625V203.275C448.083 201.744 448.238 200.441 448.548 199.365C448.867 198.29 449.318 197.41 449.902 196.727C450.485 196.043 451.182 195.546 451.993 195.236C452.805 194.917 453.707 194.758 454.7 194.758C455.503 194.758 456.241 194.858 456.915 195.059C457.599 195.259 458.21 195.574 458.747 196.002C459.294 196.421 459.759 196.968 460.142 197.643C460.525 198.308 460.816 199.11 461.017 200.049C461.227 200.979 461.331 202.054 461.331 203.275ZM457.722 207.117V202.77C457.722 202.004 457.676 201.339 457.585 200.773C457.503 200.199 457.38 199.712 457.216 199.311C457.052 198.91 456.847 198.586 456.601 198.34C456.355 198.085 456.072 197.898 455.753 197.779C455.434 197.661 455.083 197.602 454.7 197.602C454.227 197.602 453.803 197.697 453.429 197.889C453.055 198.071 452.741 198.363 452.486 198.764C452.23 199.165 452.034 199.698 451.898 200.363C451.77 201.02 451.706 201.822 451.706 202.77V207.117C451.706 207.883 451.747 208.553 451.829 209.127C451.921 209.701 452.048 210.193 452.212 210.604C452.385 211.014 452.59 211.351 452.827 211.615C453.074 211.87 453.356 212.062 453.675 212.189C453.994 212.308 454.345 212.367 454.728 212.367C455.211 212.367 455.635 212.271 455.999 212.08C456.373 211.889 456.687 211.588 456.943 211.178C457.198 210.758 457.389 210.216 457.517 209.551C457.654 208.876 457.722 208.065 457.722 207.117ZM463.772 199.912V198.859C463.772 198.103 463.936 197.415 464.264 196.795C464.592 196.175 465.071 195.678 465.7 195.305C466.338 194.931 467.113 194.744 468.024 194.744C468.954 194.744 469.733 194.931 470.362 195.305C471 195.678 471.478 196.175 471.797 196.795C472.126 197.415 472.29 198.103 472.29 198.859V199.912C472.29 200.65 472.126 201.329 471.797 201.949C471.478 202.569 471.004 203.066 470.376 203.439C469.747 203.813 468.972 204 468.051 204C467.131 204 466.351 203.813 465.713 203.439C465.075 203.066 464.592 202.569 464.264 201.949C463.936 201.329 463.772 200.65 463.772 199.912ZM466.219 198.859V199.912C466.219 200.258 466.283 200.587 466.411 200.896C466.547 201.197 466.753 201.443 467.026 201.635C467.299 201.826 467.641 201.922 468.051 201.922C468.461 201.922 468.794 201.826 469.049 201.635C469.314 201.443 469.51 201.197 469.637 200.896C469.774 200.587 469.842 200.258 469.842 199.912V198.859C469.842 198.504 469.774 198.171 469.637 197.861C469.51 197.551 469.309 197.301 469.036 197.109C468.771 196.918 468.434 196.822 468.024 196.822C467.623 196.822 467.286 196.918 467.012 197.109C466.748 197.301 466.547 197.551 466.411 197.861C466.283 198.171 466.219 198.504 466.219 198.859ZM473.329 211.109V210.057C473.329 209.309 473.493 208.626 473.821 208.006C474.158 207.386 474.646 206.889 475.284 206.516C475.922 206.142 476.692 205.955 477.594 205.955C478.533 205.955 479.317 206.142 479.946 206.516C480.575 206.889 481.049 207.386 481.368 208.006C481.696 208.626 481.86 209.309 481.86 210.057V211.109C481.86 211.857 481.696 212.54 481.368 213.16C481.049 213.78 480.575 214.277 479.946 214.65C479.326 215.024 478.556 215.211 477.635 215.211C476.715 215.211 475.931 215.024 475.284 214.65C474.646 214.277 474.158 213.78 473.821 213.16C473.493 212.54 473.329 211.857 473.329 211.109ZM475.79 210.057V211.109C475.79 211.465 475.863 211.798 476.008 212.107C476.154 212.408 476.364 212.654 476.637 212.846C476.92 213.037 477.248 213.133 477.622 213.133C478.077 213.133 478.437 213.037 478.702 212.846C478.966 212.654 479.153 212.408 479.262 212.107C479.372 211.798 479.426 211.465 479.426 211.109V210.057C479.426 209.701 479.358 209.373 479.221 209.072C479.085 208.762 478.879 208.512 478.606 208.32C478.342 208.129 478.004 208.033 477.594 208.033C477.193 208.033 476.856 208.129 476.583 208.32C476.318 208.512 476.118 208.762 475.981 209.072C475.853 209.373 475.79 209.701 475.79 210.057ZM478.497 197.875L468.776 213.434L466.985 212.436L476.706 196.877L478.497 197.875Z" fill="#626262"/>
</svg>
